<svg xmlns="http://www.w3.org/2000/svg" width="368" height="368" viewBox="0 0 368 368">
  <g id="_003-3d" data-name="003-3d" transform="translate(-1027 -5420)">
    <g id="Group_24" data-name="Group 24" transform="translate(1027 5420)">
      <path id="Path_2" data-name="Path 2" d="M8,232v32l96,96h32l-32-96Zm0,0" fill="#ffcf47"/>
      <path id="Path_3" data-name="Path 3" d="M232,360h32l96-96V232l-96,32Zm0,0" fill="#ffcf47"/>
      <path id="Path_4" data-name="Path 4" d="M232,8l32,96,96,32V104L264,8Zm0,0" fill="#ffcf47"/>
      <path id="Path_5" data-name="Path 5" d="M8,104v32l96-32L136,8H104Zm0,0" fill="#ffcf47"/>
    </g>
    <path id="Path_6" data-name="Path 6" d="M269.656,2.344A7.964,7.964,0,0,0,264,0H104a7.964,7.964,0,0,0-5.656,2.344l-96,96A7.964,7.964,0,0,0,0,104V264a7.964,7.964,0,0,0,2.344,5.656l96,96A7.964,7.964,0,0,0,104,368H264a7.964,7.964,0,0,0,5.656-2.344l96-96A7.964,7.964,0,0,0,368,264V104a7.964,7.964,0,0,0-2.344-5.656ZM141.761,352,115.1,272h137.8l-26.656,80ZM16,226.238V141.761L96,115.1v137.8ZM226.237,16,252.9,96H115.1L141.76,16ZM112,256V112H256V256ZM272,115.1l80,26.664v84.477L272,252.9Zm80-7.785V124.9L270.319,97.68,243.1,16h17.59ZM107.311,16H124.9L97.678,97.68,16,124.9v-17.59ZM16,260.688V243.1l81.68,27.223L124.9,352h-17.59ZM260.687,352H243.1l27.223-81.68L352,243.1v17.59Zm0,0" transform="translate(1027 5420)" fill="#d31b65"/>
  </g>
</svg>
