<svg xmlns="http://www.w3.org/2000/svg" width="368" height="368" viewBox="0 0 368 368">
  <g id="_004-3d" data-name="004-3d" transform="translate(-1405 -5420)">
    <g id="Group_25" data-name="Group 25" transform="translate(1405 5420)">
      <path id="Path_7" data-name="Path 7" d="M14.16,302.719c-.4,1.922-.879,3.922-1.359,6-.961,4.48-1.84,9.281-2.48,14.48-.4,2.563-.719,5.281-.961,8.082-.559,5.6-.961,11.68-1.2,18.32-.082,1.68-.082,3.359-.082,5.117C8,356.481,8,358.239,8,360c1.762,0,3.52,0,5.281-.078,1.758,0,3.438,0,5.117-.082,6.641-.238,12.723-.641,18.32-1.2,2.8-.242,5.52-.562,8.082-.961,5.2-.641,10-1.52,14.48-2.48,2.078-.48,4.078-.961,6-1.359,2.32-.559,4.641-1.2,6.8-1.84.723-31.039,5.684-50.48,11.523-67.6-17.121,5.84-36.562,10.8-67.6,11.523-.641,2.156-1.281,4.477-1.84,6.8Zm0,0" fill="#ffcf47"/>
      <path id="Path_8" data-name="Path 8" d="M302.719,353.84c1.922.4,3.922.879,6,1.359,4.48.961,9.281,1.84,14.48,2.48,2.563.4,5.281.719,8.082.961,5.6.559,11.68.961,18.32,1.2,1.68.082,3.359.082,5.117.082,1.762.078,3.52.078,5.281.078,0-1.762,0-3.52-.078-5.281,0-1.758,0-3.437-.082-5.117-.238-6.641-.641-12.723-1.2-18.32-.242-2.8-.562-5.52-.961-8.082-.641-5.2-1.52-10-2.48-14.48-.48-2.078-.961-4.078-1.359-6-.559-2.32-1.2-4.641-1.84-6.8-31.039-.723-50.48-5.684-67.6-11.523,5.84,17.121,10.8,36.563,11.523,67.6,2.156.641,4.477,1.281,6.8,1.84Zm0,0" fill="#ffcf47"/>
      <path id="Path_9" data-name="Path 9" d="M353.84,65.281c.4-1.922.879-3.922,1.359-6,.961-4.48,1.84-9.281,2.48-14.48.4-2.562.719-5.281.961-8.082.559-5.6.961-11.68,1.2-18.32.082-1.68.082-3.359.082-5.117C360,11.52,360,9.762,360,8c-1.762,0-3.52,0-5.281.078-1.758,0-3.437,0-5.117.082-6.641.238-12.723.641-18.32,1.2-2.8.242-5.52.563-8.082.961-5.2.641-10,1.52-14.48,2.48-2.078.48-4.078.961-6,1.359-2.32.559-4.641,1.2-6.8,1.84-.723,31.039-5.684,50.481-11.523,67.6,17.121-5.84,36.563-10.8,67.6-11.523.641-2.156,1.281-4.477,1.84-6.8Zm0,0" fill="#ffcf47"/>
      <path id="Path_10" data-name="Path 10" d="M65.281,14.16c-1.922-.4-3.922-.879-6-1.359C54.8,11.84,50,10.961,44.8,10.32c-2.562-.4-5.281-.719-8.082-.961-5.6-.559-11.68-.961-18.32-1.2-1.68-.082-3.359-.082-5.117-.082C11.52,8,9.762,8,8,8c0,1.762,0,3.52.078,5.281,0,1.758,0,3.438.082,5.117.238,6.641.641,12.723,1.2,18.32.242,2.8.563,5.52.961,8.082.641,5.2,1.52,10,2.48,14.48.48,2.078.961,4.078,1.359,6,.559,2.32,1.2,4.641,1.84,6.8C47.039,72.8,66.481,77.762,83.6,83.6,77.762,66.48,72.8,47.039,72.078,16c-2.156-.641-4.477-1.281-6.8-1.84Zm0,0" fill="#ffcf47"/>
      <path id="Path_11" data-name="Path 11" d="M184,104c-52.16,0-73.441-11.281-100.4-20.4C92.719,110.559,104,131.84,104,184S92.719,257.441,83.6,284.4C110.559,275.28,131.84,264,184,264s73.441,11.281,100.4,20.4C275.281,257.441,264,236.159,264,184s11.281-73.441,20.4-100.4C257.441,92.719,236.16,104,184,104Zm0,0" fill="#3cb87a"/>
    </g>
    <path id="Path_12" data-name="Path 12" d="M360,0c-1.871,0-3.762,0-5.281.078-1.879,0-3.687,0-5.5.09-.008,0-.016.008-.023.008-6.832.25-12.953.656-18.605,1.223-2.992.258-5.9.6-8.371.992H322.2a2.3,2.3,0,0,0-.23.023c-.008,0-.016.012-.031.012-4.738.59-9.465,1.391-14.754,2.52-.094.016-.176.039-.273.063H306.9l-.926.207c-1.68.4-3.312.785-4.879,1.105-.008,0-.02.008-.027.008-.07.016-.16.031-.238.055-2.457.594-4.91,1.273-7.1,1.922-8.91,2.52-16.879,5.414-24.582,8.207C247.215,24.48,226.5,32,184,32s-63.215-7.52-85.16-15.488c-7.7-2.8-15.672-5.688-24.488-8.184-2.273-.672-4.734-1.352-7.152-1.937-.094-.023-.191-.039-.277-.062-.012,0-.012-.008-.02-.008-.566-.121-1.184-.273-1.766-.4-1.4-.336-2.793-.684-4.191-.953C55.426,3.8,50.6,2.977,46.031,2.414,43.3,1.992,40.4,1.648,37.519,1.4,31.719.824,25.566.414,18.777.168,17.039.1,15.3.09,13.832.09c-.184,0-.359-.012-.551-.012h-.008C11.512.008,9.754,0,8,0A7.99,7.99,0,0,0,0,8c0,1.871,0,3.762.078,5.281,0,1.879,0,3.687.09,5.5,0,.008.008.016.008.023C.426,25.633.832,31.754,1.4,37.406c.258,2.992.6,5.9.992,8.371V45.8c.008.07.016.16.023.23,0,.008.012.023.012.031.59,4.73,1.391,9.465,2.52,14.754.016.094.039.176.063.273V61.1l.207.926C5.617,63.7,6,65.336,6.32,66.9c0,.008.008.02.008.027.016.07.031.16.055.23.594,2.457,1.273,4.91,1.922,7.1,2.52,8.91,5.414,16.879,8.207,24.582C24.48,120.785,32,141.5,32,184s-7.52,63.215-15.488,85.16c-2.8,7.7-5.687,15.672-8.184,24.488-.672,2.273-1.352,4.734-1.937,7.152-.023.094-.039.191-.062.277,0,.012-.008.012-.008.02-.121.566-.273,1.184-.4,1.766-.336,1.4-.684,2.793-.953,4.191C3.8,312.574,2.976,317.4,2.414,321.969c-.422,2.727-.766,5.633-1.016,8.512-.574,5.8-.984,11.953-1.23,18.742-.09,1.809-.09,3.609-.09,5.5v.008C.008,356.488,0,358.246,0,360a7.99,7.99,0,0,0,8,8c1.871,0,3.762,0,5.281-.078,1.879,0,3.688,0,5.5-.09.008,0,.016-.008.023-.008,6.832-.25,12.953-.656,18.605-1.223,2.992-.258,5.9-.6,8.371-.992H45.8l.23-.023c.008,0,.016-.012.031-.012,4.738-.59,9.465-1.391,14.754-2.52.094-.016.176-.039.273-.062H61.1l.926-.207c1.68-.4,3.313-.785,4.879-1.105.008,0,.02-.008.027-.008.07-.016.16-.031.238-.055,2.457-.594,4.91-1.273,7.1-1.922,8.91-2.52,16.879-5.414,24.582-8.207C120.785,343.52,141.5,336,184,336s63.215,7.52,85.16,15.488c7.7,2.8,15.672,5.688,24.488,8.184,2.281.672,4.742,1.352,7.16,1.938.094.023.191.039.281.063.008,0,.008.008.016.008.566.121,1.184.273,1.766.4,1.4.336,2.793.684,4.191.953,5.523,1.168,10.344,1.992,14.914,2.555,2.727.422,5.633.766,8.512,1.016,5.8.574,11.953.984,18.742,1.23,1.809.09,3.609.09,5.5.09h.008c1.754.07,3.512.078,5.266.078a7.99,7.99,0,0,0,8-8c0-1.816,0-3.641-.078-5.457,0-1.215-.035-2.344-.059-3.488-.016-.605,0-1.23-.031-1.832,0-.008-.008-.016-.008-.023-.25-6.832-.656-12.953-1.223-18.605-.258-2.992-.6-5.9-.992-8.371V322.2c-.008-.07-.016-.16-.023-.23,0-.008-.012-.016-.012-.031-.59-4.738-1.391-9.465-2.52-14.754-.016-.094-.039-.176-.062-.273V306.9l-.207-.926c-.4-1.68-.785-3.312-1.105-4.879,0-.008-.008-.02-.008-.027-.016-.07-.031-.16-.055-.238-.594-2.457-1.273-4.91-1.922-7.1-2.52-8.91-5.414-16.879-8.207-24.582C343.52,247.215,336,226.5,336,184s7.52-63.215,15.488-85.16c2.8-7.7,5.688-15.672,8.184-24.488.672-2.281,1.352-4.742,1.938-7.16.023-.086.039-.191.063-.281a.027.027,0,0,0,.008-.016c.121-.566.273-1.184.4-1.766.336-1.4.684-2.793.953-4.191,1.168-5.523,1.992-10.344,2.555-14.914.422-2.727.766-5.633,1.016-8.512.574-5.8.984-11.953,1.23-18.742.09-1.809.09-3.609.09-5.5v-.008c.07-1.754.078-3.512.078-5.266a7.99,7.99,0,0,0-8-8ZM345.824,303.7c.07.3.16.57.23.863.344,1.633.738,3.313,1.137,5.051l.121.5c.016.094.039.168.055.262,1.082,5.059,1.832,9.441,2.4,14.059.375,2.383.672,4.91.9,7.637.543,5.465.93,11.289,1.168,17.9.031.625.016,1.27.031,1.9-.625-.008-1.277,0-1.9-.031h-.09c-6.52-.238-12.352-.625-17.918-1.176-2.617-.223-5.152-.52-7.793-.93-4.328-.535-8.687-1.277-13.824-2.367l-.734-.176c-1.762-.406-3.465-.809-5.113-1.152-.273-.062-.535-.152-.809-.215-.887-20.887-3.7-36.441-7.191-49.32,12.887,3.5,28.441,6.3,49.328,7.191ZM58.383,347.191l-.5.121c-.094.016-.168.039-.262.055-5.059,1.082-9.441,1.832-14.059,2.4-2.383.375-4.91.672-7.637.9-5.465.543-11.289.93-17.9,1.168-.625.031-1.27.023-1.9.031.008-.633,0-1.277.031-1.9v-.09c.238-6.52.625-12.352,1.176-17.918.223-2.617.52-5.152.93-7.793.535-4.328,1.277-8.687,2.367-13.824l.176-.734c.406-1.762.809-3.465,1.152-5.113.063-.273.152-.535.215-.809,20.887-.887,36.441-3.7,49.32-7.191-3.5,12.879-6.3,28.426-7.191,49.313-.3.07-.57.16-.863.23-1.625.359-3.312.754-5.051,1.152ZM22.176,64.3c-.07-.3-.16-.57-.23-.863-.344-1.633-.738-3.312-1.137-5.051l-.121-.5c-.016-.094-.039-.168-.055-.262-1.082-5.059-1.832-9.441-2.4-14.059-.375-2.383-.672-4.91-.9-7.637-.543-5.465-.93-11.289-1.168-17.9-.031-.625-.016-1.27-.031-1.9.633.008,1.277,0,1.9.031h.145c6.5.238,12.313.625,17.863,1.176,2.617.223,5.152.52,7.793.93,4.328.535,8.688,1.277,13.824,2.367l.734.176c1.762.406,3.465.809,5.113,1.152.273.063.535.152.809.215.887,20.887,3.7,36.441,7.191,49.32-12.887-3.5-28.441-6.3-49.328-7.191ZM176,176H111.9c-.871-37.93-7.926-59.3-15.117-79.215C116.7,103.976,138.063,111.031,176,111.9Zm0,16v64.1c-37.93.871-59.3,7.926-79.215,15.117C103.977,251.3,111.031,229.937,111.9,192Zm16,0h64.1c.871,37.93,7.926,59.3,15.117,79.215C251.3,264.023,229.938,256.968,192,256.1Zm0-16V111.9c37.93-.871,59.3-7.926,79.215-15.117-7.191,19.91-14.246,41.277-15.117,79.215ZM303.7,22.175c.3-.07.57-.16.863-.23,1.633-.344,3.313-.738,5.051-1.137l.5-.121c.094-.016.168-.039.262-.055,5.059-1.082,9.441-1.832,14.059-2.4,2.383-.375,4.91-.672,7.637-.9,5.465-.543,11.289-.93,17.9-1.168.625-.031,1.27-.023,1.9-.031-.008.633,0,1.277-.031,1.9v.09c-.238,6.52-.625,12.352-1.176,17.918-.223,2.617-.52,5.152-.93,7.793-.535,4.328-1.277,8.688-2.367,13.824l-.176.734c-.406,1.762-.809,3.465-1.152,5.113-.062.273-.152.535-.215.809-20.887.887-36.441,3.7-49.32,7.191,3.5-12.887,6.3-28.441,7.191-49.328ZM274.617,31.55c4.3-1.559,8.52-3.055,12.824-4.5a193.007,193.007,0,0,1-9.418,50.32c-2.977,1.039-5.945,2.082-8.871,3.145-20.512,7.441-39.969,14.5-77.16,15.391v-48c40.1-.918,61.7-8.75,82.625-16.352ZM176,47.9v48c-37.184-.887-56.641-7.941-77.16-15.391-2.918-1.062-5.895-2.105-8.871-3.145a193.007,193.007,0,0,1-9.418-50.32c4.289,1.449,8.512,2.945,12.824,4.5C114.3,39.152,135.91,46.984,176,47.9ZM31.551,93.382c-1.559-4.3-3.055-8.52-4.5-12.824a193.007,193.007,0,0,1,50.32,9.418c1.039,2.977,2.082,5.945,3.145,8.871,7.441,20.512,14.5,39.969,15.391,77.16h-48c-.918-40.1-8.75-61.7-16.352-82.625ZM47.9,192h48c-.887,37.184-7.941,56.641-15.391,77.16-1.062,2.918-2.105,5.895-3.145,8.871a193.007,193.007,0,0,1-50.32,9.418c1.449-4.289,2.945-8.512,4.5-12.824C39.153,253.7,46.985,232.09,47.9,192Zm45.48,144.449c-4.3,1.559-8.52,3.055-12.824,4.5a193.007,193.007,0,0,1,9.418-50.32c2.977-1.039,5.945-2.082,8.871-3.145,20.512-7.441,39.969-14.5,77.16-15.391v48c-40.1.918-61.7,8.75-82.625,16.352ZM192,320.1v-48c37.184.887,56.641,7.941,77.16,15.391,2.918,1.063,5.895,2.105,8.871,3.145a193.007,193.007,0,0,1,9.418,50.32c-4.289-1.449-8.512-2.945-12.824-4.5C253.7,328.847,232.09,321.015,192,320.1Zm144.449-45.48c1.559,4.3,3.055,8.52,4.5,12.824a193.007,193.007,0,0,1-50.32-9.418c-1.039-2.977-2.082-5.945-3.145-8.871-7.441-20.512-14.5-39.969-15.391-77.16h48c.918,40.1,8.75,61.7,16.352,82.625ZM320.1,176h-48c.887-37.184,7.941-56.641,15.391-77.16,1.063-2.918,2.105-5.895,3.145-8.871a193.007,193.007,0,0,1,50.32-9.418c-1.449,4.289-2.945,8.512-4.5,12.824-7.6,20.93-15.434,42.535-16.352,82.625Zm0,0" transform="translate(1405 5420)" fill="#5f3cba"/>
  </g>
</svg>
