<svg xmlns="http://www.w3.org/2000/svg" width="368" height="367.739" viewBox="0 0 368 367.739">
  <g id="_006-3d" data-name="006-3d" transform="translate(0 0.001)">
    <g id="Symbol_2_1" data-name="Symbol 2 – 1">
      <path id="Path_13" data-name="Path 13" d="M8,295.738v16c0-26.48,78.8-48,176-48s176,21.52,176,48v-16l-176-288Zm0,0" fill="#3cb87a"/>
      <path id="Path_14" data-name="Path 14" d="M190.832,3.57c-2.9-4.762-10.754-4.762-13.656,0l-176,288A7.964,7.964,0,0,0,0,295.738v16c0,36.77,92.559,56,184,56s184-19.23,184-56v-16a8.029,8.029,0,0,0-1.168-4.168ZM184,23.082l157.977,258.5C308.071,264.539,245.8,255.738,184,255.738s-124.07,8.8-157.977,25.848Zm0,328.656c-102.551,0-168-23.687-168-40s65.449-40,168-40,168,23.688,168,40S286.551,351.738,184,351.738Zm0,0" fill="#396cd9"/>
    </g>
  </g>
</svg>
