<svg id="_007-3d" data-name="007-3d" xmlns="http://www.w3.org/2000/svg" width="368" height="368" viewBox="0 0 368 368">
  <path id="Path_15" data-name="Path 15" d="M72,296,8,360H296l64-64V8H72L8,72H296V296Zm0,0" fill="#50c2da"/>
  <path id="Path_16" data-name="Path 16" d="M4.945,367.383A8.035,8.035,0,0,0,8,368H296a8.12,8.12,0,0,0,5.664-2.352l63.992-63.992A7.978,7.978,0,0,0,368,296V8c0-.105-.055-.184-.055-.289a7.833,7.833,0,0,0-.555-2.773c0-.008-.008-.016-.016-.027-.031-.07-.086-.125-.117-.2a7.784,7.784,0,0,0-1.434-2.117,6.789,6.789,0,0,0-.609-.555A7.71,7.71,0,0,0,363.551.922c-.246-.121-.488-.258-.758-.363A7.978,7.978,0,0,0,360,0H72a7.964,7.964,0,0,0-5.656,2.344L2.352,66.336A7.9,7.9,0,0,0,.617,68.945,8.035,8.035,0,0,0,0,72V360a8.034,8.034,0,0,0,4.945,7.383ZM16,80H64V292.688l-48,48Zm272,0V288H80V80ZM75.312,304H288v48H27.312ZM304,340.688V75.313l48-48V292.688ZM75.312,16H340.687l-48,48H27.312Zm0,0" fill="#007aff"/>
</svg>
