<svg xmlns="http://www.w3.org/2000/svg" width="368" height="367.977" viewBox="0 0 368 367.977">
  <g id="_008-3d" data-name="008-3d" transform="translate(0.001)">
    <path id="Path_17" data-name="Path 17" d="M184,71.977,77.84,119.734,72,117.1V247.977l112,48.48,112-48.48.078-130.961-5.918,2.719Zm0,0" fill="#3cb87a"/>
    <path id="Path_18" data-name="Path 18" d="M367.105,84.465a8.162,8.162,0,0,0-1.168-1.738,6.17,6.17,0,0,0-.465-.535,7.767,7.767,0,0,0-2.16-1.5l-.191-.086a.008.008,0,0,1-.008-.008L187.312.7c-.031-.016-.066-.008-.09-.023A8,8,0,0,0,184.128,0h-.25a8,8,0,0,0-3.094.672c-.031.016-.066.008-.09.023L4.886,80.6a.008.008,0,0,0-.008.008l-.191.086a7.844,7.844,0,0,0-2.152,1.5c-.176.168-.312.367-.48.551A7.945,7.945,0,0,0,.9,84.457c-.117.246-.238.48-.336.734A7.822,7.822,0,0,0,0,87.977v192c0,.094.039.191.039.289.008.238.074.461.105.7a8.072,8.072,0,0,0,.574,2.137c.066.141.051.293.121.438a3.919,3.919,0,0,0,.25.359,8.162,8.162,0,0,0,.637.93,7.79,7.79,0,0,0,.754.871,8.9,8.9,0,0,0,.785.641,7.8,7.8,0,0,0,1.047.672,3.031,3.031,0,0,0,.367.23l176,80c.031.02.063.012.09.02a7.885,7.885,0,0,0,3.23.711,8,8,0,0,0,3.215-.7c.031-.016.066-.008.09-.016l176-80c.137-.066.238-.168.367-.234a7.8,7.8,0,0,0,1.047-.672,6.176,6.176,0,0,0,.785-.641,6.454,6.454,0,0,0,.754-.871,8.478,8.478,0,0,0,.637-.926c.074-.129.184-.227.25-.363s.055-.293.121-.437a8,8,0,0,0,.574-2.137c.031-.242.1-.465.105-.7a2.672,2.672,0,0,0,.055-.3v-192a7.989,7.989,0,0,0-.559-2.785c-.1-.254-.219-.488-.336-.727ZM16,100.4l48,21.816V243.031l-48,24ZM184,80.754l86.719,39.016L184,159.184,97.273,119.769ZM288,242.719l-96,41.555V173.129l96.07-43.672ZM80,129.489l96,43.641V284.274L80,242.72ZM72.238,256.8,176,301.712v45.84L26.574,279.634ZM192,301.712,295.762,256.8l45.672,22.832L192,347.552Zm112-58.68.07-120.848L352,100.4V267.032Zm-10.992-133.4a.425.425,0,0,1-.1.039l-2.789,1.273L192,66.8V20.4L340.664,87.978ZM176,20.4V66.8L77.871,110.955,27.328,87.978Zm0,0" fill="#ffcf47"/>
  </g>
</svg>
