<svg id="_009-3d" data-name="009-3d" xmlns="http://www.w3.org/2000/svg" width="368" height="368" viewBox="0 0 368 368">
  <path id="Path_19" data-name="Path 19" d="M184,136C86.8,136,8,107.359,8,72V296c0-35.359,78.8-64,176-64s176,28.641,176,64V72C360,107.359,281.2,136,184,136Zm0,0" fill="#d31b65"/>
  <path id="Path_20" data-name="Path 20" d="M184,0C94.8,0,0,25.23,0,72V296c0,46.77,94.8,72,184,72s184-25.23,184-72V72C368,25.23,273.2,0,184,0Zm0,16c99,0,168,29.512,168,56s-69,56-168,56S16,98.488,16,72,85,16,184,16Zm168,86.785v162.43C321.273,238.266,251.055,224,184,224S46.727,238.266,16,265.215V102.785C46.727,129.734,116.945,144,184,144s137.273-14.266,168-41.215ZM184,352c-99,0-168-29.512-168-56s69-56,168-56,168,29.512,168,56S283,352,184,352Zm0,0" fill="#007aff"/>
</svg>
