<svg xmlns="http://www.w3.org/2000/svg" width="368" height="367.992" viewBox="0 0 368 367.992">
  <g id="_010-3d" data-name="010-3d" transform="translate(0)">
    <path id="Path_21" data-name="Path 21" d="M264,103.992l-80-32v256l80,32Zm0,0" fill="#b600a6"/>
    <path id="Path_22" data-name="Path 22" d="M104,103.992l-96-32v256l96,32Zm0,0" fill="#396cd9"/>
    <path id="Path_23" data-name="Path 23" d="M5.473,335.586l96,32a8.225,8.225,0,0,0,2.016.324c.152.012.289.074.434.074.023-.008.047.008.078.008a7.956,7.956,0,0,0,2.727-.527c.082-.031.16-.016.242-.039L184,336.609l77.031,30.816c.082.031.168.016.25.047a7.878,7.878,0,0,0,2.613.5c.035,0,.074.016.105.016a7.814,7.814,0,0,0,2.426-.4.93.93,0,0,0,.1-.02l96-32A7.969,7.969,0,0,0,368,327.992v-256c0-.1-.047-.176-.055-.273a8.161,8.161,0,0,0-.5-2.512,7.316,7.316,0,0,0-.4-.824,8.046,8.046,0,0,0-1.07-1.582,6.432,6.432,0,0,0-.656-.687,7.94,7.94,0,0,0-1.687-1.137c-.242-.121-.441-.281-.7-.383a1.763,1.763,0,0,0-.2-.113l-176-64a8.021,8.021,0,0,0-5.469,0l-176,64a1.763,1.763,0,0,0-.2.113,5.674,5.674,0,0,0-.687.383A7.941,7.941,0,0,0,2.68,66.113a8.409,8.409,0,0,0-.656.688,7.932,7.932,0,0,0-1.07,1.59,6.822,6.822,0,0,0-.906,3.344c0,.082-.047.16-.047.258v256a7.994,7.994,0,0,0,5.473,7.594ZM16,83.1l80,26.664V348.9L16,322.231Zm240,26.309v238.77l-64-25.6V83.809ZM176,322.575l-64,25.6V109.406l64-25.6Zm96,26.32V109.762L352,83.1V322.231ZM184,16.5l151.688,55.16L264.247,95.481,187.114,64.625l-.145-.059A7.963,7.963,0,0,0,184,63.992a8.113,8.113,0,0,0-2.969.566l-.145.059L103.754,95.473,32.313,71.656Zm0,0" fill="#50c2da"/>
  </g>
</svg>
