<svg id="_011-3d" data-name="011-3d" xmlns="http://www.w3.org/2000/svg" width="368" height="368" viewBox="0 0 368 368">
  <path id="Path_24" data-name="Path 24" d="M184,72A112.021,112.021,0,0,0,72,184V344a112,112,0,0,1,224,0V184A112.021,112.021,0,0,0,184,72Zm0,0" fill="#50c2da"/>
  <path id="Path_25" data-name="Path 25" d="M184,0C82.543,0,0,82.535,0,184V360a8,8,0,0,0,8,8H72a8,8,0,0,0,8-8V344a104,104,0,0,1,208,0v16a8,8,0,0,0,8,8h64a8,8,0,0,0,8-8V184C368,82.535,285.457,0,184,0ZM64,352H16V272H64Zm16-67.617V184c0-54.641,42.391-99.48,96-103.594v144a120,120,0,0,0-96,59.977Zm112-59.977v-144C245.609,84.52,288,129.359,288,184V284.383a120,120,0,0,0-96-59.977ZM304,352V272h48v80Zm48-152v56H304V184a120,120,0,0,0-240,0v72H16V184C16,91.367,91.359,16,184,16S352,91.367,352,184Zm0,0" fill="#5f3cba"/>
</svg>
