<svg xmlns="http://www.w3.org/2000/svg" width="368" height="368" viewBox="0 0 368 368">
  <g id="_012-3d" data-name="012-3d" transform="translate(0)">
    <path id="Path_26" data-name="Path 26" d="M264,360l96-96V104l-96,96Zm0,0" fill="#396cd9"/>
    <path id="Path_27" data-name="Path 27" d="M104,360a95.864,95.864,0,0,0,91.84-68.16,87.965,87.965,0,0,0,3.039-13.2c.082-.562.16-1.2.242-1.762a40.476,40.476,0,0,0,.48-4.32,24.8,24.8,0,0,0,.238-3.437c.082-1.68.16-3.441.16-5.121V136l-4.16-4.16A95.98,95.98,0,0,1,8,104V264A95.975,95.975,0,0,0,104,360Zm0,0" fill="#50c2da"/>
    <path id="Path_28" data-name="Path 28" d="M365.648,98.336,269.656,2.344a8.235,8.235,0,0,0-11.312,0L198.929,61.762C182.48,24.863,145.16,0,104,0A104.12,104.12,0,0,0,0,104V264a103.942,103.942,0,0,0,198.938,42.246l59.406,59.41A8.088,8.088,0,0,0,264,368a7.978,7.978,0,0,0,3.039-.609.029.029,0,0,0,.023-.008,7.859,7.859,0,0,0,2.352-1.574c.074-.066.172-.09.242-.16l96-96A7.933,7.933,0,0,0,368,264V104a7.889,7.889,0,0,0-.617-3.055,7.985,7.985,0,0,0-1.734-2.609ZM264,19.313,348.688,104,264,188.688l-58.336-58.336-.016-.016L179.313,104ZM104,16a88.4,88.4,0,0,1,82.648,58.039l-24.3,24.3a8,8,0,0,0,0,11.312l24.3,24.3A87.961,87.961,0,1,1,104,16Zm0,336a88.1,88.1,0,0,1-88-88V159.168a103.73,103.73,0,0,0,176,.039V264c0,1.551-.078,3.184-.16,5.121a26.7,26.7,0,0,1-.223,3.008,31.229,31.229,0,0,1-.426,3.641l-.223,1.68a86.283,86.283,0,0,1-2.082,9.527c-.238.855-.43,1.7-.711,2.566C177.144,326.32,142.519,352,104,352Zm100.984-63.266a86.816,86.816,0,0,0,1.734-8.527c.016-.109.051-.191.066-.3v-.023c.008-.039.016-.086.023-.125l.2-1.539a36.682,36.682,0,0,0,.512-4.535,31.247,31.247,0,0,0,.313-4.168c.09-1.824.168-3.7.168-5.512V155.312l48,48V340.687l-51.168-51.168c.055-.246.1-.543.152-.785ZM272,340.688V203.313l80-80V260.688Zm0,0" fill="#d31b65"/>
  </g>
</svg>
