<svg xmlns="http://www.w3.org/2000/svg" width="368.001" height="367.989" viewBox="0 0 368.001 367.989">
  <g id="_014-3d" data-name="014-3d" transform="translate(-0.001 -0.003)">
    <g id="Group_27" data-name="Group 27">
      <path id="Path_29" data-name="Path 29" d="M184,135.992v96l170.637-42.641L360,183.992l-5.363-5.359Zm0,0" fill="#b600a6"/>
      <path id="Path_30" data-name="Path 30" d="M184,359.992v-128L13.363,189.351Zm0,0" fill="#b600a6"/>
      <path id="Path_31" data-name="Path 31" d="M13.363,178.633,184,135.992v-128Zm0,0" fill="#b600a6"/>
    </g>
    <path id="Path_32" data-name="Path 32" d="M189.664,2.344A7.841,7.841,0,0,0,187.051.609a8.033,8.033,0,0,0-8.723,1.734L2.348,178.336a7.99,7.99,0,0,0,0,11.313L178.34,365.64a8.021,8.021,0,0,0,11.324,0L365.656,189.648a7.99,7.99,0,0,0,0-11.312ZM176,221.754,24.9,183.992,176,146.23Zm16-75.523,151.1,37.762L192,221.754Zm0-16.477V27.3L328.57,163.871Zm-16,0L39.434,163.879,176,27.3Zm0,108.477V340.68L39.434,204.106Zm16,0L328.57,204.106,192,340.68Zm0,0" fill="#50c2da"/>
  </g>
</svg>
