<svg xmlns="http://www.w3.org/2000/svg" width="367.939" height="368" viewBox="0 0 367.939 368">
  <g id="_015-3d" data-name="015-3d" transform="translate(0 0)">
    <path id="Path_33" data-name="Path 33" d="M7.969,360l176-96,176,96-176-352Zm0,0" fill="#fd7c20"/>
    <path id="Path_34" data-name="Path 34" d="M367.664,357.977c-.055-.207-.137-.383-.207-.586a8.041,8.041,0,0,0-.336-.965l-176-352a6.722,6.722,0,0,0-1.312-1.8,7.816,7.816,0,0,0-11.68-.008,6.764,6.764,0,0,0-1.312,1.8l-176,352a8.128,8.128,0,0,0-.336.969c-.074.2-.152.387-.207.586a7.941,7.941,0,0,0-.25,2.641c.016.176.063.352.09.527a7.919,7.919,0,0,0,.727,2.344c.055.113.047.23.105.344.023.047.078.078.1.129.047.078.066.168.113.246a7.924,7.924,0,0,0,1.656,1.855,6.4,6.4,0,0,0,.52.387,8.087,8.087,0,0,0,2.094,1.086c.129.039.25.113.379.152a7.811,7.811,0,0,0,2.16.32h352a8.077,8.077,0,0,0,2.063-.273c.137-.039.258-.109.391-.16a7.712,7.712,0,0,0,1.5-.621c.219-.129.4-.3.609-.449a7.912,7.912,0,0,0,1.031-.8c.2-.191.352-.437.539-.656a8.691,8.691,0,0,0,.672-.824c.039-.062.055-.137.094-.207s.09-.105.129-.168c.055-.113.047-.23.105-.344a8.035,8.035,0,0,0,.727-2.344c.023-.176.078-.352.086-.527A7.97,7.97,0,0,0,367.664,357.977Zm-191.7-98.73L26.535,340.762,175.969,41.887Zm8,13.867L328.59,352H39.344Zm8-13.867V41.887L341.4,340.763Zm0,0" fill="#b600a6"/>
  </g>
</svg>
