<svg id="_017-3d" data-name="017-3d" xmlns="http://www.w3.org/2000/svg" width="368" height="368" viewBox="0 0 368 368">
  <path id="Path_35" data-name="Path 35" d="M184,8V20.078a175.957,175.957,0,0,1,0,327.844V360A176,176,0,0,0,184,8Zm0,0" fill="#3cb87a"/>
  <path id="Path_36" data-name="Path 36" d="M232,184a48,48,0,1,1-48-48A48,48,0,0,1,232,184Zm0,0" fill="#396cd9"/>
  <path id="Path_37" data-name="Path 37" d="M184,0C82.543,0,0,82.543,0,184S82.543,368,184,368s184-82.543,184-184S285.465,0,184,0Zm0,144a40,40,0,1,1-40,40A40.047,40.047,0,0,1,184,144Zm8,95.359a55.924,55.924,0,0,0,0-110.719V32.23c57.871,27.488,96,87.043,96,151.77s-38.129,124.281-96,151.77ZM16,184C16,94.063,87.09,20.625,176,16.406V128.64a55.924,55.924,0,0,0,0,110.719V351.593C87.09,347.374,16,273.937,16,184ZM196.078,351.383C260.992,321.871,304,255.895,304,184S260.992,46.129,196.078,16.617C283.078,22.847,352,95.441,352,184S283.078,345.152,196.078,351.383Zm0,0" fill="#5f3cba"/>
</svg>
