<svg id="_019-3d" data-name="019-3d" xmlns="http://www.w3.org/2000/svg" width="368" height="368" viewBox="0 0 368 368">
  <path id="Path_38" data-name="Path 38" d="M184,104a357.587,357.587,0,0,0-72.8,7.2A357.587,357.587,0,0,0,104,184c0,97.2,35.84,176,80,176A176,176,0,0,0,360,184C360,139.84,281.2,104,184,104Zm0,0" fill="#fd7c20"/>
  <path id="Path_39" data-name="Path 39" d="M184,8A176,176,0,0,0,8,184c0-32.4,42.32-60.238,103.2-72.8C123.761,50.32,151.6,8,184,8Zm0,0" fill="#b600a6"/>
  <path id="Path_40" data-name="Path 40" d="M184,0C82.543,0,0,82.543,0,184S82.543,368,184,368s184-82.543,184-184S285.465,0,184,0ZM346.5,142.09C315.816,114.434,255.246,96,184,96a372.17,372.17,0,0,0-62.289,5.176C134.594,49.77,158.938,16,184,16c78.145,0,143.8,53.7,162.5,126.09ZM141.992,21.527c-16.2,17.984-29.336,46.563-37.48,82.984-36.434,8.145-65,21.281-82.984,37.48A168.367,168.367,0,0,1,141.992,21.527ZM16,184c0-25.055,33.762-49.406,85.176-62.289A372.309,372.309,0,0,0,96,184c0,71.246,18.441,131.816,46.09,162.5C69.7,327.8,16,262.144,16,184ZM184,352c-39.023,0-72-76.937-72-168a350.715,350.715,0,0,1,6.09-65.91A350.529,350.529,0,0,1,184,112c91.063,0,168,32.977,168,72,0,92.641-75.367,168-168,168Zm0,0" fill="#5f3cba"/>
</svg>
