<svg xmlns="http://www.w3.org/2000/svg" width="368" height="368" viewBox="0 0 368 368">
  <g id="_020-3d" data-name="020-3d" transform="translate(0)">
    <path id="Path_41" data-name="Path 41" d="M184,296,8,232v64l176,64,176-64V232Zm0,0" fill="#ffcf47"/>
    <path id="Path_42" data-name="Path 42" d="M184,168l176,64V72L184,8Zm0,0" fill="#fd7c20"/>
    <path id="Path_43" data-name="Path 43" d="M362.734,64.48l-176-64a8.021,8.021,0,0,0-5.469,0l-176,64A8.01,8.01,0,0,0,0,72V296a8.01,8.01,0,0,0,5.266,7.52l176,64a8.021,8.021,0,0,0,5.469,0l176-64A8.01,8.01,0,0,0,368,296V72A8.01,8.01,0,0,0,362.734,64.48ZM352,220.574,192,162.391V19.426L352,77.6ZM184,176.512,248.593,200,184,223.489,119.406,200Zm-88,32L160.586,232,96,255.489,31.406,232Zm88,32L248.593,264,184,287.489,119.406,264Zm88,14.977L207.414,232,272,208.512,336.593,232ZM176,19.426V162.4L16,220.586V77.6Zm8,332.063L16,290.4V243.426L181.266,303.52a8.021,8.021,0,0,0,5.469,0L352,243.426V290.4Zm0,0" fill="#50c2da"/>
  </g>
</svg>
