<svg xmlns="http://www.w3.org/2000/svg" width="368" height="368" viewBox="0 0 368 368">
  <g id="_021-3d" data-name="021-3d" transform="translate(0)">
    <path id="Path_44" data-name="Path 44" d="M264,104,184,72V200l80,32Zm0,0" fill="#5f3cba"/>
    <path id="Path_45" data-name="Path 45" d="M184,264l-80-32V104L8,72V296l176,64Zm0,0" fill="#3cb87a"/>
    <path id="Path_46" data-name="Path 46" d="M367.91,71.281a7.91,7.91,0,0,0-.6-2.41c-.047-.109-.074-.23-.129-.336a7.84,7.84,0,0,0-1.559-2.145c-.145-.145-.289-.277-.449-.414-.176-.152-.312-.328-.5-.465a6.78,6.78,0,0,0-.762-.312,7.946,7.946,0,0,0-1.176-.719l-176-64a8.021,8.021,0,0,0-5.469,0l-176,64A7.946,7.946,0,0,0,4.09,65.2a6.9,6.9,0,0,0-.77.313c-.184.137-.328.313-.5.465a5.639,5.639,0,0,0-.449.414A7.96,7.96,0,0,0,.808,68.535c-.055.113-.082.227-.129.336a7.8,7.8,0,0,0-.6,2.41c-.016.16-.047.3-.055.461,0,.09-.023.168-.023.258V296a8.01,8.01,0,0,0,5.266,7.52l176,64a8.021,8.021,0,0,0,5.469,0l176-64A8.01,8.01,0,0,0,368,296V72c0-.09-.023-.168-.031-.258a3.814,3.814,0,0,0-.059-.461ZM184,16.512l151.688,55.16-71.43,23.809L186.977,64.566a8.2,8.2,0,0,0-2.793-.535c-.062,0-.121-.031-.184-.031a1.538,1.538,0,0,0-.184.039,8.021,8.021,0,0,0-2.793.535L103.743,95.488,32.313,71.68Zm0,238.871L125.535,232,184,208.617,242.465,232Zm-8-60.8-64,25.6V109.414l64-25.6Zm16,0V83.816l64,25.6V220.176ZM16,83.1,96,109.77V232a7.889,7.889,0,0,0,.566,2.8c.105.27.242.512.371.766a7.867,7.867,0,0,0,1.109,1.648,7.347,7.347,0,0,0,.578.633,7.962,7.962,0,0,0,1.977,1.336c.117.055.223.152.344.207.031.008.047.035.078.051L176,269.414v79.16L16,290.4ZM352,290.4,192,348.586v-79.16l74.977-29.992c.031-.008.047-.035.078-.051.129-.055.227-.145.344-.207a7.755,7.755,0,0,0,1.977-1.336,7.347,7.347,0,0,0,.578-.633,7.867,7.867,0,0,0,1.109-1.648c.129-.254.266-.5.371-.766A7.813,7.813,0,0,0,272,232V109.77L352,83.1Zm0,0" fill="#007aff"/>
  </g>
</svg>
