<svg xmlns="http://www.w3.org/2000/svg" width="368.003" height="368.003" viewBox="0 0 368.003 368.003">
  <g id="_022-3d" data-name="022-3d" transform="translate(0 -0.001)">
    <path id="Path_47" data-name="Path 47" d="M8,72,72,8,360,296l-64,64Zm0,0" transform="translate(1)" fill="#5f3cba"/>
    <path id="Path_48" data-name="Path 48" d="M77.656,2.348a7.99,7.99,0,0,0-11.312,0l-64,64c-.121.117-.16.277-.273.406a7.827,7.827,0,0,0-1.2,1.809,7.35,7.35,0,0,0-.336.711A7.879,7.879,0,0,0,0,72V360a8,8,0,0,0,8,8H296a7.957,7.957,0,0,0,2.719-.531,7.413,7.413,0,0,0,.715-.336,7.84,7.84,0,0,0,1.813-1.207c.129-.113.289-.152.41-.273l64-64a7.985,7.985,0,0,0,0-11.309ZM16,352V91.313L276.688,352Zm280-3.312L19.312,72,72,19.312,348.688,296Zm0,0" fill="#d31b65"/>
  </g>
</svg>
