<svg id="_025-3d" data-name="025-3d" xmlns="http://www.w3.org/2000/svg" width="368" height="367.997" viewBox="0 0 368 367.997">
  <path id="Path_52" data-name="Path 52" d="M72,8,8,40l96,42.641,96,42.719L296,168V360l64-32V136Zm0,0" fill="#fd7c20"/>
  <path id="Path_53" data-name="Path 53" d="M368,136.141V136a7.872,7.872,0,0,0-.48-2.57c-.07-.207-.152-.4-.238-.6a7.885,7.885,0,0,0-1.359-2.168c-.043-.051-.066-.105-.113-.152A7.96,7.96,0,0,0,364.2,129.2a6.933,6.933,0,0,0-.672-.3c-.1-.055-.168-.152-.281-.2l-288-128a8,8,0,0,0-6.832.152l-64,32c-.094.047-.141.137-.238.184-.176.094-.367.152-.543.262A8.318,8.318,0,0,0,2,34.723c-.1.113-.16.23-.246.352a8,8,0,0,0-1.18,2.082c-.07.176-.148.344-.207.527A8.251,8.251,0,0,0,0,40V232a7.989,7.989,0,0,0,4.754,7.313l192.023,85.344c.07.031.133.063.207.094l95.758,42.563c.121.055.258.031.379.078a8.109,8.109,0,0,0,2.855.609h.016a8,8,0,0,0,2.063-.3c.211-.055.4-.145.6-.215a7.67,7.67,0,0,0,.91-.328l64-32A8,8,0,0,0,368,328ZM72.2,16.836,341.258,136.418,295.8,159.148,107.223,75.34c-.07-.031-.133-.066-.207-.1L26.743,39.57ZM112,190.973l80,35.551V305l-80-35.57Zm0-17.516V94.973l80,35.551v78.488ZM16,52.309,96,87.868v78.488L16,130.794Zm192,85.328L288,173.2v78.488L208,216.13ZM16,148.309,96,183.86v78.465L16,226.794ZM208,312.122V233.646L288,269.2v78.488Zm144,10.93-48,24v-174.1l48-24Zm0,0" fill="#d31b65"/>
</svg>
